<svg width="308" height="216" viewBox="0 0 308 216" fill="none" xmlns="http://www.w3.org/2000/svg">
<path d="M98.6396 133.38C95.2196 142.74 90.7196 149.4 83.5196 149.4C77.7596 149.4 74.3396 145.08 74.3396 136.98C73.9796 120.6 89.6396 83.7 101.7 83.7V82.8H66.4196V83.7C70.9196 83.88 74.6996 85.68 74.6996 93.6C74.8796 100.98 71.6396 111.24 67.6796 122.58H45.1796L47.5196 114.3C50.7596 103.32 54.7196 91.08 59.0396 82.8H29.6996V83.7C36.7196 83.88 42.8396 85.68 42.8396 93.6C43.1996 109.26 20.5196 173.34 0.179609 198H48.0596C35.2796 191.16 35.8196 162.54 43.1996 131.04H64.6196C58.4996 148.14 51.8396 167.04 52.1996 183.06C52.3796 195.84 57.7796 199.8 62.6396 199.8C77.2196 199.8 93.5996 164.7 104.4 133.38H98.6396ZM147.791 133.38C144.371 142.74 132.311 150.48 123.311 150.48C116.111 150.48 111.071 147.42 108.911 142.2C122.231 143.28 135.551 129.78 135.551 117C135.551 109.98 130.691 106.02 124.031 106.02C113.231 106.02 104.231 118.44 98.8309 133.38C84.9709 171.54 84.6109 200.88 104.951 200.88C126.371 200.88 142.751 163.08 153.551 133.38H147.791ZM122.411 114.48C125.471 114.48 127.271 116.46 127.271 120.06C127.271 128.52 117.551 138.06 107.831 137.88V136.26C107.831 126 114.671 114.48 122.411 114.48ZM177.394 133.38C174.334 141.66 169.114 149.22 162.814 149.22C150.934 149.22 155.974 131.22 163.174 111.42C167.674 99.18 173.074 85.68 178.834 77.4H151.474V78.12C169.834 78.12 157.054 107.82 147.874 133.38C137.074 163.26 131.854 200.88 143.914 200.88C156.694 200.88 175.054 155.7 183.154 133.38H177.394ZM206.925 133.38C203.865 141.66 198.645 149.22 192.345 149.22C180.465 149.22 185.505 131.22 192.705 111.42C197.205 99.18 202.605 85.68 208.365 77.4H181.005V78.12C199.365 78.12 186.585 107.82 177.405 133.38C166.605 163.26 161.385 200.88 173.445 200.88C186.225 200.88 204.585 155.7 212.685 133.38H206.925ZM210.536 200.88C222.596 200.88 229.616 186.3 236.816 167.22C247.436 139.14 254.636 105.66 233.036 105.66C220.976 105.66 213.236 116.28 206.936 133.38C196.136 163.08 188.576 200.88 210.536 200.88ZM224.576 149.22C219.176 149.22 215.396 144.72 215.396 137.16C215.396 126.9 222.236 112.5 231.956 112.5C236.816 112.5 240.056 116.46 240.056 123.3C240.056 134.1 234.836 149.22 224.576 149.22Z" fill="#0589C7"/>
<path d="M276.4 169L248.6 169L248.6 168.36C254.8 168.36 256.519 162.192 258.431 157C261.562 148.5 264.6 137.8 265.8 134C267 130.2 268 126.6 269 122.8L271 115C273.9 103 278.5 83.5 271.2 76L307.8 76C290.5 86 274 138.5 271 157C269.5 165.5 268.6 167.8 276.4 168L276.4 169Z" fill="#0589C7"/>
<path d="M261.4 178.2L260.4 178.2C257.6 186 248.8 192 242 192.8L242 193.8C248.6 194.2 254.2 201 253.4 208L254.4 208C257 200.8 265 194.6 272.8 194.4L272.8 193.4C265.4 192.8 260.8 185.4 261.4 178.2Z" fill="#0589C7"/>
</svg>
