<svg width="1512" height="982" viewBox="0 0 1512 982" fill="none" xmlns="http://www.w3.org/2000/svg">
<mask id="mask0_1497_931" style="mask-type:alpha" maskUnits="userSpaceOnUse" x="0" y="0" width="1512" height="982">
<rect width="1512" height="982" fill="#D9D9D9"/>
</mask>
<g mask="url(#mask0_1497_931)">
<path d="M270.052 999.958L270.007 1000.5H270.55H304.107H304.459L304.578 1000.17C351.517 869.41 448.76 753.712 562.799 667.345C676.838 580.977 807.629 523.974 921.615 510.564L922.057 510.512V510.067V476.51V476.039L921.587 476.011C700.414 462.607 512.688 234.689 539.503 0.0567426L539.567 -0.500031H539.007H505.45H505.099L504.979 -0.169853C461.393 120.53 372.534 232.87 261.861 315.875C151.188 398.88 18.7355 452.524 -112.013 455.876L-112.5 455.889V456.376V489.933V490.394L-112.04 490.432C135.928 510.537 290.171 758.538 270.052 999.958Z" stroke="#FFA7CB"/>
<path d="M1013.04 255.122L1012.5 255.077L1012.5 255.62L1012.5 281.815L1012.5 282.167L1012.83 282.286C1114.88 318.917 1205.18 394.81 1272.58 483.817C1339.99 572.825 1384.48 674.902 1394.95 763.857L1395 764.299L1395.44 764.299L1421.64 764.299L1422.11 764.299L1422.14 763.829C1432.6 591.247 1610.45 444.75 1793.55 465.675L1794.1 465.739L1794.1 465.178L1794.1 438.984L1794.1 438.633L1793.77 438.513C1699.58 404.498 1611.9 335.149 1547.12 248.772C1482.33 162.394 1440.47 59.0226 1437.85 -43.0128L1437.84 -43.5L1437.35 -43.5L1411.16 -43.5L1410.7 -43.5L1410.66 -43.0404C1394.97 150.447 1201.45 270.823 1013.04 255.122Z" stroke="#FFA7CB"/>
</g>
</svg>
