<svg width="819" height="279" viewBox="0 0 819 279" fill="none" xmlns="http://www.w3.org/2000/svg">
<path d="M66.5501 57.4H65.5501C61.1195 57.4 57.5405 59.7138 54.5671 64.572C51.5667 69.4743 49.2586 76.8647 47.4461 86.7307C43.9127 105.964 42.3284 134.197 40.8596 170.678C50.6498 154.76 61.0558 135.42 69.1344 117.011C77.608 97.7012 83.4501 79.5712 83.4501 67.5C83.4501 64.108 82.9245 61.6128 81.6682 59.9699C80.4596 58.3895 78.4133 57.4 74.8501 57.4H73.8501V53.9H129.25V57.4H128.25C121.32 57.4 115.783 61.0162 111.322 67.4864C106.841 73.9863 103.51 83.2894 101.064 94.4147C96.3387 115.914 94.9888 143.882 94.7688 170.652C111.713 140.997 127.815 112.707 136.933 91.6649C141.618 80.8504 144.394 72.0901 144.566 66.0885C144.652 63.0945 144.084 60.9489 142.95 59.5624C141.846 58.2115 140.053 57.4 137.25 57.4H136.25V53.9H175.774C179.751 50.4785 182.885 46.1893 184.52 41.6604L184.759 41H188.082L187.955 42.1135C187.474 46.3165 188.622 50.4652 190.807 53.9L193.237 56.8531C193.328 56.9358 193.446 57.1006 193.557 57.2532L193.785 57.5385C195.376 59.0633 200.269 62.0683 204.122 62.3018L205.061 62.3588V65.6892L204.178 65.7931C199.292 66.3679 193.606 68.8292 188.615 72.6097C183.626 76.3876 179.421 81.4153 177.402 87.0379L177.165 87.7H173.874L173.964 86.617C174.307 82.5115 174.48 69.4002 172.717 65.8734C171.248 67.657 168.5 75.5 166 80C165.232 81.3822 162.237 87.0379 156.868 95.9H192.193L190.707 97.5656C185.847 103.015 180.575 111.615 176.517 121.069C172.458 130.529 169.661 140.738 169.661 149.4C169.661 155.245 171.122 159.232 173.545 161.758C175.962 164.277 179.489 165.5 183.961 165.5C189.771 165.5 195.916 162.441 201.325 157.511C206.72 152.593 211.28 145.901 213.925 138.849L214.168 138.2H214.266C215.625 134.423 217.027 130.601 218.432 126.77L218.432 126.769C224.904 109.12 231.44 91.2975 234.199 76.9857C235.9 68.1671 236.119 60.8896 234.16 55.863C233.194 53.3817 231.704 51.4666 229.597 50.16C227.48 48.8468 224.662 48.1 220.969 48.1H219.969V44.9H268.483L267.39 46.4711C257.875 60.1487 248.914 82.5264 241.407 102.945C235.403 119.459 230.35 135.092 229.239 146.571C228.682 152.325 229.137 156.859 230.801 159.919C232.405 162.87 235.218 164.6 239.869 164.6C244.696 164.6 249.243 161.701 253.28 156.929C257.306 152.171 260.706 145.686 263.231 138.853L263.472 138.2H263.484C264.844 134.423 266.246 130.601 267.651 126.77L267.651 126.769C274.123 109.12 280.659 91.2974 283.418 76.9857C285.118 68.1671 285.337 60.8896 283.379 55.863C282.413 53.3817 280.922 51.4666 278.816 50.16C276.699 48.8468 273.881 48.1 270.188 48.1H269.188V44.9H317.701L316.608 46.4711C307.094 60.1481 298.134 82.5244 290.627 102.942C284.622 119.457 279.569 135.092 278.458 146.571C277.901 152.325 278.356 156.859 280.019 159.919C281.624 162.87 284.436 164.6 289.088 164.6C293.915 164.6 298.461 161.701 302.499 156.929C306.525 152.171 309.924 145.686 312.45 138.853L312.691 138.2H324.414L323.928 139.541C317.172 158.156 306.131 186.326 294.103 209.855C288.092 221.615 281.813 232.258 275.677 239.975C272.609 243.834 269.551 246.994 266.551 249.198C263.559 251.396 260.545 252.7 257.588 252.7C254.778 252.7 252.452 251.59 250.623 249.582C248.821 247.605 247.527 244.789 246.64 241.377C244.867 234.554 244.644 225.025 245.604 214.038C245.805 211.734 246.059 209.361 246.362 206.932C245.871 207.913 245.379 208.888 244.884 209.855C238.873 221.615 232.594 232.258 226.458 239.975C223.39 243.834 220.332 246.994 217.333 249.198C214.34 251.396 211.326 252.7 208.369 252.7C205.559 252.7 203.233 251.59 201.404 249.582C199.603 247.605 198.308 244.789 197.421 241.377C195.648 234.554 195.426 225.025 196.385 214.038C196.626 211.279 196.942 208.422 197.328 205.486C196.24 207.587 195.138 209.654 194.025 211.681C187.727 223.15 181.034 233.356 174.188 240.71C167.373 248.031 160.241 252.7 153.061 252.7C149.761 252.7 146.937 251.816 144.603 250.11C142.278 248.409 140.503 245.939 139.207 242.863C136.627 236.741 135.879 228.06 136.576 217.658C137.972 196.822 145.208 168.595 156.021 138.858C158.641 131.673 160.615 125.56 161.882 120.435C163.153 115.299 163.697 111.213 163.5 108.062C163.304 104.924 162.382 102.823 160.823 101.483C159.456 100.308 157.467 99.6045 154.692 99.4383C148.641 109.425 142.609 120.623 136.836 132.403C117.243 172.374 100.718 218.843 96.5393 247.047L96.4128 247.9H57.4303L57.6695 246.704C62.3156 223.473 70.323 183.152 74.3645 147.181C53.3389 185.575 43.1199 221.693 42.2495 246.934L42.2162 247.9H0L0.393492 246.609C6.22355 227.474 13.1901 194.002 18.7005 160.115C24.2119 126.222 28.2501 92.014 28.2501 71.4C28.2501 65.7665 27.2764 62.326 25.496 60.2818C23.7504 58.2776 21.0329 57.4 16.9501 57.4H15.9501V53.9H66.5501V57.4Z" fill="#EF8C64"/>
<path d="M425.2 164.1C405.7 164.1 394.9 151.5 394.9 128.7C394.9 99.3 413.8 73.2 433.6 73.2C442.6 73.2 454.6 78.6 449.2 108.9H450.7L471.4 51.9H471.1C464.2 57.6 452.2 54.9 443.2 54.9C391.6 54.9 358.6 155.1 358.6 208.8C358.6 233.1 364.6 253.8 386.5 253.8C418 253.8 448.6 187.5 465.1 141.3H455.5C450.1 156.6 439.9 164.1 425.2 164.1ZM555.147 141.3C550.347 155.1 541.047 167.7 530.247 167.7C523.947 167.7 519.147 163.2 519.147 154.8C519.147 142.2 527.547 126 527.547 112.5C527.547 102 521.247 95.4 509.847 95.4C494.847 95.4 483.147 106.8 477.147 115.5H476.547C484.347 93 497.547 61.8 507.147 48H461.547V49.2C492.147 49.2 470.847 98.7 455.547 141.3C434.547 198.9 428.247 253.8 448.947 253.8C470.547 253.8 466.047 215.1 490.047 151.8H488.547C486.147 156.6 480.447 168 472.947 168C467.247 168 465.747 163.2 465.747 158.1C465.747 140.7 482.847 110.1 502.047 110.1C508.947 110.1 512.547 114.3 512.547 121.5C512.547 142.8 483.147 195.3 483.147 231C483.147 244.8 487.347 253.8 498.747 253.8C520.647 253.8 551.247 179.1 564.747 141.3H555.147ZM653.856 141.3C649.056 155.1 639.456 168.9 628.356 168.9C620.556 168.9 615.756 163.2 615.756 152.4C615.756 137.1 622.656 114.3 638.256 98.4L637.056 97.2C632.256 100.8 629.556 101.4 625.656 101.4C616.956 101.4 611.556 95.4 599.256 95.4C583.056 95.4 566.856 109.5 555.156 141.3C543.156 174 521.556 253.8 549.156 253.8C566.856 253.8 579.156 222.9 589.956 198C583.956 223.5 580.356 253.8 597.456 253.8C619.356 253.8 649.656 179.4 663.456 141.3H653.856ZM576.756 168C570.456 168 566.556 163.2 566.556 155.1C566.556 139.5 581.556 106.8 598.956 106.8C604.356 106.8 608.856 110.4 608.856 118.2C608.856 133.8 593.256 168 576.756 168ZM653.887 141.3C636.787 188.4 628.987 253.8 661.687 253.8C680.587 253.8 694.687 230.4 702.187 207.9C723.487 144.3 683.287 142.8 683.287 120.6C683.287 112.8 688.387 107.4 695.287 107.4C703.987 107.4 709.087 115.2 709.687 128.1H711.187L723.187 91.5H722.887C717.487 97.2 714.187 97.5 711.487 97.5C704.287 97.5 700.987 95.4 694.687 95.4C679.987 95.4 670.087 106.8 670.087 120.6C670.087 139.8 689.287 147.6 689.287 162.9C689.287 170.4 684.487 177 675.787 177C660.787 177 656.887 157.8 663.487 141.3H653.887ZM809.022 141.3C803.322 156.9 783.222 169.8 768.222 169.8C756.222 169.8 747.822 164.7 744.222 156C766.422 157.8 788.622 135.3 788.622 114C788.622 102.3 780.522 95.7 769.422 95.7C751.422 95.7 736.422 116.4 727.422 141.3C704.322 204.9 703.722 253.8 737.622 253.8C773.322 253.8 800.622 190.8 818.622 141.3H809.022ZM766.722 109.8C771.822 109.8 774.822 113.1 774.822 119.1C774.822 133.2 758.622 149.1 742.422 148.8V146.1C742.422 129 753.822 109.8 766.722 109.8Z" fill="#EF8C64"/>
</svg>
