<svg width="635" height="240" viewBox="0 0 635 240" fill="none" xmlns="http://www.w3.org/2000/svg">
<path d="M30.2625 223.2C48.2625 223.2 60.0625 202.8 70.6625 177.4C86.2625 139 96.8625 89.6 66.2625 89.6C49.6625 89.6 37.6625 104.2 27.4625 128.4C11.8625 165.6 0.262499 223.2 30.2625 223.2ZM48.6625 163.4C41.4625 163.4 35.4625 158 35.4625 145.4C35.4625 127.4 48.0625 101 63.8625 101C70.6625 101 75.6625 105.4 75.6625 117C75.6625 133.8 65.4625 163.4 48.6625 163.4ZM155.603 148.2C152.403 157.4 146.203 165.8 139.003 165.8C134.803 165.8 131.603 162.8 131.603 157.2C131.603 148.8 137.203 138 137.203 129C137.203 122 133.003 117.6 125.403 117.6C115.403 117.6 107.603 125.2 103.603 131H103.203C108.403 116 117.203 95.2 123.603 86H93.2031V86.8C113.603 86.8 99.4031 119.8 89.2031 148.2C75.2031 186.6 71.0031 223.2 84.8031 223.2C99.2031 223.2 96.2031 197.4 112.203 155.2H111.203C109.603 158.4 105.803 166 100.803 166C97.0031 166 96.0031 162.8 96.0031 159.4C96.0031 147.8 107.403 127.4 120.203 127.4C124.803 127.4 127.203 130.2 127.203 135C127.203 149.2 107.603 184.2 107.603 208C107.603 217.2 110.403 223.2 118.003 223.2C132.603 223.2 153.003 173.4 162.003 148.2H155.603ZM212.353 146C236.153 146 251.553 131 251.553 113C251.553 98.4 241.353 92 226.753 92H188.953V93C196.753 93.2 203.353 95.2 203.353 104C203.353 121.4 176.953 192.6 156.553 220H217.153C202.953 212.4 197.153 180.8 203.753 146H212.353ZM216.553 101.6H224.753C231.553 101.6 236.953 104 236.953 114.2C236.953 127.2 228.353 138.2 212.753 138.2H205.353C206.353 134.4 207.353 130.8 208.553 127L216.553 101.6ZM252.578 223.2C265.978 223.2 273.778 207 281.778 185.8C293.578 154.6 301.578 117.4 277.578 117.4C264.178 117.4 255.578 129.2 248.578 148.2C236.578 181.2 228.178 223.2 252.578 223.2ZM268.178 165.8C262.178 165.8 257.978 160.8 257.978 152.4C257.978 141 265.578 125 276.378 125C281.778 125 285.378 129.4 285.378 137C285.378 149 279.578 165.8 268.178 165.8ZM302.094 148.2C290.694 179.6 285.494 223.2 307.294 223.2C319.894 223.2 329.294 207.6 334.294 192.6C348.494 150.2 321.694 149.2 321.694 134.4C321.694 129.2 325.094 125.6 329.694 125.6C335.494 125.6 338.894 130.8 339.294 139.4H340.294L348.294 115H348.094C344.494 118.8 342.294 119 340.494 119C335.694 119 333.494 117.6 329.294 117.6C319.494 117.6 312.894 125.2 312.894 134.4C312.894 147.2 325.694 152.4 325.694 162.6C325.694 167.6 322.494 172 316.694 172C306.694 172 304.094 159.2 308.494 148.2H302.094ZM351.117 148.2C339.717 179.6 334.517 223.2 356.317 223.2C368.917 223.2 378.317 207.6 383.317 192.6C397.517 150.2 370.717 149.2 370.717 134.4C370.717 129.2 374.117 125.6 378.717 125.6C384.517 125.6 387.917 130.8 388.317 139.4H389.317L397.317 115H397.117C393.517 118.8 391.317 119 389.517 119C384.717 119 382.517 117.6 378.317 117.6C368.517 117.6 361.917 125.2 361.917 134.4C361.917 147.2 374.717 152.4 374.717 162.6C374.717 167.6 371.517 172 365.717 172C355.717 172 353.117 159.2 357.517 148.2H351.117ZM467.894 148.2C464.694 157.4 458.494 165.8 451.294 165.8C446.694 165.8 443.094 163.4 443.094 156C443.094 144.2 451.894 126.8 457.894 120H432.894V121C438.094 121 440.294 124 440.294 130.6C440.294 145.6 429.494 166.4 417.894 166.4C413.294 166.4 409.894 163.2 409.894 154.8C409.894 141.8 417.894 125.6 424.094 120H400.694V121C410.494 121 409.094 129.2 402.094 148.2C388.494 185 382.894 223 397.894 223C409.494 223 419.094 202.2 425.694 186C421.294 204.8 419.694 223.2 430.294 223.2C444.894 223.2 465.294 173.4 474.294 148.2H467.894ZM566.914 148.2C563.714 157.4 557.514 165.8 550.314 165.8C546.114 165.8 542.914 162.8 542.914 156.8C542.914 148.8 548.714 138 548.714 129.6C548.714 122 544.114 117.6 536.514 117.6C527.114 117.6 518.714 125.4 513.514 133.8H513.114C514.514 124.2 512.114 117.6 503.714 117.6C493.914 117.6 485.514 126.6 479.914 133.8H479.514C481.514 128.8 483.714 123.8 485.914 120H463.714V121C476.514 121 474.914 129.2 467.914 148.2C453.914 186.6 449.914 223.2 463.114 223.2C478.314 223.2 474.914 197.4 490.914 155.2H489.914C488.314 158.4 484.714 166 479.114 166C475.514 166 474.714 162.8 474.714 159.6C474.714 147.8 487.114 127.4 498.514 127.4C502.514 127.4 504.914 130 504.914 134.8C504.914 149 486.314 185.6 486.314 208.8C486.314 217.6 489.114 223.2 495.514 223.2C508.914 223.2 507.314 196.4 524.714 155.2H523.714C522.114 158.4 518.514 166 513.114 166C509.514 166 508.514 162.8 508.514 159.4C508.514 147.8 520.714 127.4 532.514 127.4C536.714 127.4 538.714 130 538.714 134.6C538.714 149 518.914 184.2 518.914 208C518.914 217.2 521.714 223.2 529.314 223.2C543.914 223.2 564.314 173.4 573.314 148.2H566.914Z" fill="#1A1A1A"/>
<path d="M603.4 192L575.6 192L575.6 191.36C581.8 191.36 583.519 185.192 585.431 180C588.562 171.5 591.6 160.8 592.8 157C594 153.2 595 149.6 596 145.8L598 138C600.9 126 605.5 106.5 598.2 99L634.8 99C617.5 109 601 161.5 598 180C596.622 188.5 595.6 190.8 603.4 191L603.4 192Z" fill="#1A1A1A"/>
<path d="M588.4 201.2L587.4 201.2C584.6 209 575.8 215 569 215.8L569 216.8C575.6 217.2 581.2 224 580.4 231L581.4 231C584 223.8 592 217.6 599.8 217.4L599.8 216.4C592.4 215.8 587.8 208.4 588.4 201.2Z" fill="#1A1A1A"/>
</svg>
