<svg width="602" height="136" viewBox="0 0 602 136" fill="none" xmlns="http://www.w3.org/2000/svg">
<path d="M56.4859 58C80.2859 58 95.6859 43 95.6859 25C95.6859 10.4 85.4859 3.99999 70.8859 3.99999H33.0859V4.99999C40.8859 5.2 47.4859 7.2 47.4859 16C47.4859 33.4 21.0859 104.6 0.685936 132H61.2859C47.0859 124.4 41.2859 92.8 47.8859 58H56.4859ZM60.6859 13.6H68.8859C75.6859 13.6 81.0859 16 81.0859 26.2C81.0859 39.2 72.4859 50.2 56.8859 50.2H49.4859C50.4859 46.4 51.4859 42.8 52.6859 39L60.6859 13.6ZM148.111 59.6C146.111 64.4 139.911 75.4 124.111 75.4H101.111L119.311 20C122.111 11.2 129.111 4.99999 142.111 4.99999V3.99999H93.7109V4.99999C101.511 4.99999 108.111 7.2 108.111 16C108.111 31.6 84.5109 94.4 75.1109 113.2C69.3109 124.8 63.7109 131 53.3109 131V132H122.311L149.111 59.6H148.111ZM164.63 135.2C182.63 135.2 194.43 114.8 205.03 89.4C220.63 51 231.23 1.6 200.63 1.6C184.03 1.6 172.03 16.2 161.83 40.4C146.23 77.6 134.63 135.2 164.63 135.2ZM183.03 75.4C175.83 75.4 169.83 70 169.83 57.4C169.83 39.4 182.43 13 198.23 13C205.03 13 210.03 17.4 210.03 29C210.03 45.8 199.83 75.4 183.03 75.4ZM251.017 58C274.817 58 290.217 43 290.217 25C290.217 10.4 280.017 3.99999 265.417 3.99999H227.617V4.99999C235.417 5.2 242.017 7.2 242.017 16C242.017 33.4 215.617 104.6 195.217 132H255.817C241.617 124.4 235.817 92.8 242.417 58H251.017ZM255.217 13.6H263.417C270.217 13.6 275.617 16 275.617 26.2C275.617 39.2 267.017 50.2 251.417 50.2H244.017C245.017 46.4 246.017 42.8 247.217 39L255.217 13.6ZM299.242 135.2C274.842 135.2 277.842 94.4 291.842 55.6C301.642 28.6 314.642 3.4 335.442 3.4C343.442 3.4 351.042 7.39999 358.442 0.799996H358.642L343.042 38.6H342.042C345.642 18.4 336.842 15 330.842 15C317.642 15 306.642 32.4 306.642 52C306.642 67.2 315.242 75.8 327.042 75.8C336.642 75.8 343.442 69.2 350.442 57.8H351.642C337.842 90.4 325.042 135.2 299.242 135.2ZM364.239 135.2C382.239 135.2 394.039 114.8 404.639 89.4C420.239 51 430.839 1.6 400.239 1.6C383.639 1.6 371.639 16.2 361.439 40.4C345.839 77.6 334.239 135.2 364.239 135.2ZM382.639 75.4C375.439 75.4 369.439 70 369.439 57.4C369.439 39.4 382.039 13 397.839 13C404.639 13 409.639 17.4 409.639 29C409.639 45.8 399.439 75.4 382.639 75.4ZM496.78 22.4C496.98 10.6 488.18 3.99999 471.18 3.99999H431.18V4.99999C455.98 4.99999 440.78 38.6 431.58 62.6C421.58 88.4 407.98 117.2 395.38 132H444.38C430.78 124.6 433.58 94.8 445.78 54.4H450.38C459.38 54.4 461.78 57.6 461.58 64.2C461.38 85.6 436.98 134 454.18 134C469.18 134 483.98 96.4 496.38 60.2H495.18C491.38 68.8 487.58 75.8 480.38 75.8C473.78 75.8 472.78 69.8 472.38 63.2C471.78 56.2 470.78 52.4 462.98 51.2V50.8C481.98 50.2 496.58 37.6 496.78 22.4ZM455.78 46.6H448.38L450.78 39L458.78 15H466.78C475.98 15 482.78 19.6 482.78 27.8C482.58 36.2 474.58 46.6 455.78 46.6ZM475.295 132C493.295 110.6 521.695 42 521.695 18.2C521.695 10.2 518.095 4.99999 507.695 4.99999V3.99999H538.695L549.095 78.6H549.495L558.695 51.8C566.295 29.6 572.495 5.59999 555.295 4.99999V3.99999H601.695V4.99999C586.895 4.99999 581.495 18.4 573.895 40.8L542.095 135.2H541.495L528.295 43.2H527.895L517.295 77.6C510.095 101 513.095 123.6 527.095 131.8V132H475.295Z" fill="#FFA7CB"/>
</svg>
