<svg width="508" height="122" viewBox="0 0 508 122" fill="none" xmlns="http://www.w3.org/2000/svg">
<path d="M50.66 52.4C72.08 52.4 85.94 38.9 85.94 22.7C85.94 9.55999 76.76 3.79999 63.62 3.79999H29.6V4.69999C36.62 4.88 42.56 6.68 42.56 14.6C42.56 30.26 18.8 94.34 0.439999 119H54.98C42.2 112.16 36.98 83.72 42.92 52.4H50.66ZM54.44 12.44H61.82C67.94 12.44 72.8 14.6 72.8 23.78C72.8 35.48 65.06 45.38 51.02 45.38H44.36C45.26 41.96 46.16 38.72 47.24 35.3L54.44 12.44ZM149.503 20.36C149.683 9.73999 141.763 3.79999 126.463 3.79999H90.4625V4.69999C112.783 4.69999 99.1025 34.94 90.8225 56.54C81.8225 79.76 69.5825 105.68 58.2425 119H102.343C90.1025 112.34 92.6225 85.52 103.603 49.16H107.743C115.843 49.16 118.003 52.04 117.823 57.98C117.643 77.24 95.6825 120.8 111.163 120.8C124.663 120.8 137.983 86.96 149.143 54.38H148.063C144.643 62.12 141.223 68.42 134.743 68.42C128.803 68.42 127.903 63.02 127.543 57.08C127.003 50.78 126.103 47.36 119.083 46.28V45.92C136.183 45.38 149.323 34.04 149.503 20.36ZM112.603 42.14H105.943L108.103 35.3L115.303 13.7H122.503C130.783 13.7 136.903 17.84 136.903 25.22C136.723 32.78 129.523 42.14 112.603 42.14ZM163.107 121.88C179.307 121.88 189.927 103.52 199.467 80.66C213.507 46.1 223.047 1.64 195.507 1.64C180.567 1.64 169.767 14.78 160.587 36.56C146.547 70.04 136.107 121.88 163.107 121.88ZM179.667 68.06C173.187 68.06 167.787 63.2 167.787 51.86C167.787 35.66 179.127 11.9 193.347 11.9C199.467 11.9 203.967 15.86 203.967 26.3C203.967 41.42 194.787 68.06 179.667 68.06ZM193.113 118.46C201.033 121.34 208.053 121.88 213.093 121.88C251.973 121.88 255.573 75.62 266.373 41.6C273.933 17.84 280.053 4.69999 292.833 4.69999V3.79999H246.573V4.69999C268.893 4.69999 263.313 23.24 257.553 41.06C250.533 62.84 243.693 68.06 233.793 68.06C225.513 68.06 218.853 63.56 216.333 54.92H215.973C214.533 72.74 204.453 101.9 193.113 118.46ZM272.952 3.79999V4.69999C279.972 4.88 285.912 6.68 285.912 14.6C285.912 28.64 267.552 77.42 256.212 102.08C251.172 113.06 245.952 118.1 236.592 118.1V119H294.732L319.932 54.02H319.032C317.232 58.52 311.652 68.06 297.432 68.06H280.692L289.332 40.16H295.992C304.812 40.16 306.432 44.66 307.152 54.92H308.052L316.872 24.32H315.972C311.292 31.88 306.792 33.86 298.332 33.86H291.312L297.972 12.44H311.472C320.652 12.44 324.072 16.4 324.252 25.22H325.152L327.672 3.79999H272.952ZM335.41 121.88C313.45 121.88 316.15 85.16 328.75 50.24C337.57 25.94 349.27 3.26 367.99 3.26C375.19 3.26 382.03 6.86 388.69 0.919997H388.87L374.83 34.94H373.93C377.17 16.76 369.25 13.7 363.85 13.7C351.97 13.7 342.07 29.36 342.07 47C342.07 60.68 349.81 68.42 360.43 68.42C369.07 68.42 375.19 62.48 381.49 52.22H382.57C370.15 81.56 358.63 121.88 335.41 121.88ZM396.787 3.79999L388.687 30.8H389.587C394.267 22.34 400.567 12.44 410.647 12.44H419.647L408.487 48.62C404.347 62.3 397.327 68.06 385.087 68.06L368.887 119H417.487L433.147 68.06C420.367 68.06 413.707 63.38 419.107 46.28L429.727 12.44H435.307C444.487 12.44 447.187 20 448.627 30.62H449.347L453.847 3.79999H396.787ZM453.258 121.88C474.498 121.88 483.318 105.5 488.898 89.12C504.198 43.58 475.218 37.64 475.218 21.08C475.218 14.96 478.998 10.82 485.118 10.82C492.318 10.82 497.358 16.76 496.458 28.64H497.358L507.618 0.739999H507.438C500.778 6.5 495.378 2.17999 486.558 2.17999C474.318 2.17999 466.578 10.28 466.578 20.9C466.578 35.48 480.618 40.7 480.618 53.66C480.618 61.22 475.758 68.06 466.938 68.06C458.658 68.06 452.178 62.3 450.918 51.86H450.018C444.258 74.9 435.978 100.64 423.378 121.88C437.058 119.72 443.898 121.88 453.258 121.88Z" fill="#FAC950"/>
</svg>
