<svg width="354" height="132" viewBox="0 0 354 132" fill="none" xmlns="http://www.w3.org/2000/svg">
<path d="M107.195 56.2C103.195 66.8 98.7953 71.4 92.1953 71.4C84.9953 71.4 81.3953 65.8 80.7953 59.2C80.1953 52.2 78.7953 49 69.5953 47.8V47.4C86.7953 46.2 98.3953 33.6 98.3953 20.4C98.3953 6.59999 88.1953 -9.05991e-06 73.3953 -9.05991e-06H35.1953V0.99999C42.9953 1.2 49.5953 3.2 49.5953 12C49.5953 29.4 22.9953 100.6 0.395312 128H53.3953C39.7953 120.6 39.3953 90.8 50.3953 50.4H58.5953C67.5953 50.4 69.5953 53.6 69.5953 60.2C69.5953 75.4 58.1953 96.6 58.1953 114.6C58.1953 127.4 63.7953 130 68.9953 130C84.5953 130 100.395 92.4 113.595 56.2H107.195ZM59.7953 42.6H52.3953L54.7953 35L62.3953 11H70.1953C77.1953 11 84.1953 12 84.1953 22.2C84.1953 33 75.1953 42.6 59.7953 42.6ZM111.125 131.2C124.525 131.2 132.325 115 140.325 93.8C152.125 62.6 160.125 25.4 136.125 25.4C122.725 25.4 114.125 37.2 107.125 56.2C95.125 89.2 86.725 131.2 111.125 131.2ZM126.725 73.8C120.725 73.8 116.525 68.8 116.525 60.4C116.525 49 124.125 33 134.925 33C140.325 33 143.925 37.4 143.925 45C143.925 57 138.125 73.8 126.725 73.8ZM197.641 56.2C194.441 65.4 188.241 73.8 181.041 73.8C174.641 73.8 169.641 70.6 169.641 61C169.641 53.6 171.841 45.6 175.241 36.8H190.041L193.441 28H178.641L185.041 12H183.841C175.041 22.4 167.241 28.2 155.441 35.8V36.8H167.441C165.641 42.2 163.241 49 160.641 56.2C148.441 90.4 140.241 131.2 160.041 131.2C174.641 131.2 195.041 81.4 204.041 56.2H197.641ZM263.355 56.2C260.155 65.4 253.755 74.6 246.355 74.6C241.155 74.6 237.955 70.8 237.955 63.6C237.955 53.4 242.555 38.2 252.955 27.6L252.155 26.8C248.955 29.2 247.155 29.6 244.555 29.6C238.755 29.6 235.155 25.6 226.955 25.6C216.155 25.6 205.355 35 197.555 56.2C189.555 78 175.155 131.2 193.555 131.2C205.355 131.2 213.555 110.6 220.755 94C216.755 111 214.355 131.2 225.755 131.2C240.355 131.2 260.555 81.6 269.755 56.2H263.355ZM211.955 74C207.755 74 205.155 70.8 205.155 65.4C205.155 55 215.155 33.2 226.755 33.2C230.355 33.2 233.355 35.6 233.355 40.8C233.355 51.2 222.955 74 211.955 74ZM300.375 56.2C297.175 65.4 290.975 73.8 283.775 73.8C277.375 73.8 272.375 70.6 272.375 61C272.375 53.6 274.575 45.6 277.975 36.8H292.775L296.175 28H281.375L287.775 12H286.575C277.775 22.4 269.975 28.2 258.175 35.8V36.8H270.175C268.375 42.2 265.975 49 263.375 56.2C251.175 90.4 242.975 131.2 262.775 131.2C277.375 131.2 297.775 81.4 306.775 56.2H300.375ZM304.289 131.2C317.689 131.2 325.489 115 333.489 93.8C345.289 62.6 353.289 25.4 329.289 25.4C315.889 25.4 307.289 37.2 300.289 56.2C288.289 89.2 279.889 131.2 304.289 131.2ZM319.889 73.8C313.889 73.8 309.689 68.8 309.689 60.4C309.689 49 317.289 33 328.089 33C333.489 33 337.089 37.4 337.089 45C337.089 57 331.289 73.8 319.889 73.8Z" fill="#EF8C64"/>
</svg>
