<svg width="421" height="122" viewBox="0 0 421 122" fill="none" xmlns="http://www.w3.org/2000/svg">
<path d="M9.36 3.95999C14.4 3.95999 16.74 6.12 16.74 12.96C16.74 37.8 7.02 95.22 0 118.26H23.94C24.48 102.6 30.96 80.1 44.28 56.34H44.64C42.3 78.48 37.26 103.86 34.38 118.26H56.52C61.56 84.24 96.3 6.47999 115.92 3.95999V3.06H81.54V3.95999C95.94 3.95999 76.68 37.62 55.8 74.16H55.44C55.62 41.04 58.5 3.95999 76.14 3.95999V3.06H44.1V3.95999C48.6 3.95999 49.86 6.47999 49.86 10.62C49.86 25.38 35.64 54.54 23.4 74.16H23.04C24.84 28.8 26.82 3.95999 38.52 3.95999V3.06H9.36V3.95999Z" fill="#135538"/>
<path d="M163.567 53.64C159.967 63.18 156.007 67.32 150.067 67.32C143.587 67.32 140.347 62.28 139.807 56.34C139.267 50.04 138.007 47.16 129.727 46.08V45.72C145.207 44.64 155.647 33.3 155.647 21.42C155.647 8.99999 146.467 3.06 133.147 3.06H98.7666V3.95999C105.787 4.14 111.727 5.94 111.727 13.86C111.727 29.52 87.7866 93.6 67.4466 118.26H115.147C102.907 111.6 102.547 84.78 112.447 48.42H119.827C127.927 48.42 129.727 51.3 129.727 57.24C129.727 70.92 119.467 90 119.467 106.2C119.467 117.72 124.507 120.06 129.187 120.06C143.227 120.06 157.447 86.22 169.327 53.64H163.567ZM120.907 41.4H114.247L116.407 34.56L123.247 12.96H130.267C136.567 12.96 142.867 13.86 142.867 23.04C142.867 32.76 134.767 41.4 120.907 41.4Z" fill="#135538"/>
<path d="M139.743 118.26H188.163C173.043 110.16 175.383 72.18 184.743 41.58C192.843 15.12 198.783 3.95999 211.563 3.95999V3.06H168.903V3.95999C175.923 3.95999 181.863 5.94 181.863 13.86C181.863 29.52 158.103 93.6 139.743 118.26Z" fill="#135538"/>
<path d="M207.204 3.06L199.104 30.06H200.004C204.684 21.6 210.984 11.7 221.064 11.7H230.064L218.904 47.88C214.764 61.56 207.744 67.32 195.504 67.32L179.304 118.26H227.904L243.564 67.32C230.784 67.32 224.124 62.64 229.524 45.54L240.144 11.7H245.724C254.904 11.7 257.604 19.26 259.044 29.88H259.764L264.264 3.06H207.204Z" fill="#135538"/>
<path d="M233.435 118.26H281.855C266.735 110.16 269.075 72.18 278.435 41.58C286.535 15.12 292.475 3.95999 305.255 3.95999V3.06H262.595V3.95999C269.615 3.95999 275.555 5.94 275.555 13.86C275.555 29.52 251.795 93.6 233.435 118.26Z" fill="#135538"/>
<path d="M265.075 118.26C281.275 99 306.835 37.26 306.835 15.84C306.835 8.64 303.595 3.95999 294.235 3.95999V3.06H322.135L331.495 70.2H331.855L340.135 46.08C346.975 26.1 352.555 4.5 337.075 3.95999V3.06H378.835V3.95999C365.515 3.95999 360.655 16.02 353.815 36.18L325.195 121.14H324.655L312.775 38.34H312.415L302.875 69.3C296.395 90.36 299.095 110.7 311.695 118.08V118.26H265.075Z" fill="#135538"/>
<path d="M381.732 50.94L384.432 42.3H420.972V43.2C409.992 43.2 404.952 64.26 399.552 78.84C391.092 101.34 382.272 121.14 366.072 121.14C353.292 121.14 348.972 108.72 348.972 94.14C348.972 61.92 368.412 1.8 397.392 1.8C404.772 1.8 409.812 5.57999 416.472 0H416.652L405.852 30.06H404.952C406.572 16.02 399.372 12.78 393.972 12.78C381.732 12.78 370.032 28.8 370.032 47.16C370.032 59.76 375.612 67.32 384.972 67.32C394.152 67.32 400.452 59.4 404.052 50.94H381.732Z" fill="#135538"/>
</svg>
