<svg width="421" height="122" viewBox="0 0 421 122" fill="none" xmlns="http://www.w3.org/2000/svg">
<path d="M9.36531 4.69999C14.4053 4.69999 16.7453 6.86 16.7453 13.7C16.7453 38.54 7.02531 95.96 0.00531243 119H23.9453C24.4853 103.34 30.9653 80.84 44.2853 57.08H44.6453C42.3053 79.22 37.2653 104.6 34.3853 119H56.5253C61.5653 84.98 96.3053 7.21999 115.925 4.69999V3.79999H81.5453V4.69999C95.9453 4.69999 76.6853 38.36 55.8053 74.9H55.4453C55.6253 41.78 58.5053 4.69999 76.1453 4.69999V3.79999H44.1053V4.69999C48.6053 4.69999 49.8653 7.21999 49.8653 11.36C49.8653 26.12 35.6453 55.28 23.4053 74.9H23.0453C24.8453 29.54 26.8253 4.69999 38.5253 4.69999V3.79999H9.36531V4.69999ZM163.572 54.38C159.972 63.92 156.012 68.06 150.072 68.06C143.592 68.06 140.352 63.02 139.812 57.08C139.272 50.78 138.012 47.9 129.732 46.82V46.46C145.212 45.38 155.652 34.04 155.652 22.16C155.652 9.73999 146.472 3.79999 133.152 3.79999H98.7719V4.69999C105.792 4.88 111.732 6.68 111.732 14.6C111.732 30.26 87.7919 94.34 67.4519 119H115.152C102.912 112.34 102.552 85.52 112.452 49.16H119.832C127.932 49.16 129.732 52.04 129.732 57.98C129.732 71.66 119.472 90.74 119.472 106.94C119.472 118.46 124.512 120.8 129.192 120.8C143.232 120.8 157.452 86.96 169.332 54.38H163.572ZM120.912 42.14H114.252L116.412 35.3L123.252 13.7H130.272C136.572 13.7 142.872 14.6 142.872 23.78C142.872 33.5 134.772 42.14 120.912 42.14ZM139.749 119H188.169C173.049 110.9 175.389 72.92 184.749 42.32C192.849 15.86 198.789 4.69999 211.569 4.69999V3.79999H168.909V4.69999C175.929 4.69999 181.869 6.68 181.869 14.6C181.869 30.26 158.109 94.34 139.749 119ZM207.209 3.79999L199.109 30.8H200.009C204.689 22.34 210.989 12.44 221.069 12.44H230.069L218.909 48.62C214.769 62.3 207.749 68.06 195.509 68.06L179.309 119H227.909L243.569 68.06C230.789 68.06 224.129 63.38 229.529 46.28L240.149 12.44H245.729C254.909 12.44 257.609 20 259.049 30.62H259.769L264.269 3.79999H207.209ZM233.44 119H281.86C266.74 110.9 269.08 72.92 278.44 42.32C286.54 15.86 292.48 4.69999 305.26 4.69999V3.79999H262.6V4.69999C269.62 4.69999 275.56 6.68 275.56 14.6C275.56 30.26 251.8 94.34 233.44 119ZM265.081 119C281.281 99.74 306.841 38 306.841 16.58C306.841 9.38 303.601 4.69999 294.241 4.69999V3.79999H322.141L331.501 70.94H331.861L340.141 46.82C346.981 26.84 352.561 5.23999 337.081 4.69999V3.79999H378.841V4.69999C365.521 4.69999 360.661 16.76 353.821 36.92L325.201 121.88H324.661L312.781 39.08H312.421L302.881 70.04C296.401 91.1 299.101 111.44 311.701 118.82V119H265.081ZM381.738 51.68L384.438 43.04H420.978V43.94C409.998 43.94 404.958 65 399.558 79.58C391.098 102.08 382.278 121.88 366.078 121.88C353.298 121.88 348.978 109.46 348.978 94.88C348.978 62.66 368.418 2.54 397.398 2.54C404.778 2.54 409.818 6.31999 416.478 0.739999H416.658L405.858 30.8H404.958C406.578 16.76 399.378 13.52 393.978 13.52C381.738 13.52 370.038 29.54 370.038 47.9C370.038 60.5 375.618 68.06 384.978 68.06C394.158 68.06 400.458 60.14 404.058 51.68H381.738Z" fill="#135538"/>
</svg>
